<?xml version="1.0" encoding="UTF-8" standalone="no"?>
<!-- Created with Inkscape (http://www.inkscape.org/) -->

<svg
   width="40.762386mm"
   height="87.002205mm"
   viewBox="0 0 40.762386 87.002205"
   version="1.1"
   id="svg1"
   inkscape:version="1.3.2 (091e20e, 2023-11-25, custom)"
   sodipodi:docname="bottle.svg"
   xmlns:inkscape="http://www.inkscape.org/namespaces/inkscape"
   xmlns:sodipodi="http://sodipodi.sourceforge.net/DTD/sodipodi-0.dtd"
   xmlns="http://www.w3.org/2000/svg"
   xmlns:svg="http://www.w3.org/2000/svg">
  <sodipodi:namedview
     id="namedview1"
     pagecolor="#ffffff"
     bordercolor="#000000"
     borderopacity="0"
     inkscape:showpageshadow="2"
     inkscape:pageopacity="0.0"
     inkscape:pagecheckerboard="true"
     inkscape:deskcolor="#d1d1d1"
     inkscape:document-units="mm"
     showborder="true"
     inkscape:zoom="0.69219276"
     inkscape:cx="78.735293"
     inkscape:cy="240.53993"
     inkscape:window-width="1920"
     inkscape:window-height="991"
     inkscape:window-x="-9"
     inkscape:window-y="-9"
     inkscape:window-maximized="1"
     inkscape:current-layer="layer1" />
  <defs
     id="defs1">
    <inkscape:path-effect
       effect="fillet_chamfer"
       id="path-effect33"
       is_visible="true"
       lpeversion="1"
       nodesatellites_param="F,0,0,1,0,0,0,1 @ F,0,0,1,0,0,0,1 @ F,0,0,1,0,7.5059416,0,1 @ F,0,1,1,0,7.5059416,0,1"
       radius="0"
       unit="px"
       method="auto"
       mode="F"
       chamfer_steps="1"
       flexible="false"
       use_knot_distance="true"
       apply_no_radius="true"
       apply_with_radius="true"
       only_selected="false"
       hide_knots="false" />
    <inkscape:path-effect
       effect="fillet_chamfer"
       id="path-effect34"
       is_visible="true"
       lpeversion="1"
       nodesatellites_param="F,0,1,1,0,9.1205727,0,1 @ F,0,0,1,0,9.1205727,0,1 @ F,0,0,1,0,0,0,1 @ F,0,0,1,0,0,0,1"
       radius="0"
       unit="px"
       method="auto"
       mode="F"
       chamfer_steps="1"
       flexible="false"
       use_knot_distance="true"
       apply_no_radius="true"
       apply_with_radius="true"
       only_selected="false"
       hide_knots="false" />
    <inkscape:path-effect
       effect="fillet_chamfer"
       id="path-effect35"
       is_visible="true"
       lpeversion="1"
       nodesatellites_param="F,0,1,1,0,2.5863017,0,1 @ F,0,1,1,0,2.5863017,0,1 @ F,0,1,1,0,2.5863017,0,1 @ F,0,1,1,0,2.5863017,0,1"
       radius="0"
       unit="px"
       method="auto"
       mode="F"
       chamfer_steps="1"
       flexible="false"
       use_knot_distance="true"
       apply_no_radius="true"
       apply_with_radius="true"
       only_selected="false"
       hide_knots="false" />
  </defs>
  <g
     inkscape:label="Слой 1"
     inkscape:groupmode="layer"
     id="layer1"
     transform="translate(-84.054243,-84.963379)">
    <g
       id="g36"
       transform="matrix(1.0956985,0,0,1.0326948,-591.49945,-467.65139)">
      <g
         id="g35"
         transform="translate(67.601042,-7.8052083)">
        <rect
           style="fill:#ffda44;fill-opacity:1;stroke:#e8e3e6;stroke-width:0;stroke-dasharray:none"
           id="rect31"
           width="36.669376"
           height="32.179253"
           x="549.12067"
           y="578.7049" />
        <path
           id="rect32"
           style="fill:#a05f4b;fill-opacity:1;stroke:#e8e3e6;stroke-width:0"
           d="m 504.82498,615.95001 h 37.17396 v 3.34198 a 7.5059416,7.5059416 135 0 1 -7.50594,7.50594 h -22.16208 a 7.5059416,7.5059416 45 0 1 -7.50594,-7.50594 z"
           inkscape:path-effect="#path-effect33"
           inkscape:original-d="m 504.82498,615.95001 h 37.17396 v 10.84792 h -37.17396 z"
           transform="translate(44.152926,0.37417734)" />
        <path
           id="rect33"
           style="fill:#a05f4b;fill-opacity:1;stroke:#e8e3e6;stroke-width:0"
           d="m 514.01086,563.64563 h 18.61533 a 9.1205727,9.1205727 45 0 1 9.12057,9.12057 v 1.07576 h -36.85647 v -1.07576 a 9.1205727,9.1205727 135 0 1 9.12057,-9.12057 z"
           inkscape:path-effect="#path-effect34"
           inkscape:original-d="m 504.89029,563.64563 h 36.85647 v 10.19633 h -36.85647 z"
           transform="translate(44.059382,-0.1403165)" />
        <path
           style="fill:#c9885b;fill-opacity:1;stroke:#e8e3e6;stroke-width:0;stroke-dasharray:none"
           d="m 559.32344,547.22447 -1.98437,16.60261 20.17448,-0.1323 -1.98438,-16.40416 z"
           id="path34" />
        <path
           id="rect34"
           style="fill:#a05f4b;fill-opacity:1;stroke:#e8e3e6;stroke-width:0"
           d="m 515.6795,542.26355 h 15.39875 a 2.5863017,2.5863017 45 0 1 2.5863,2.5863 2.3309352,2.3309352 141.68131 0 1 -2.5863,2.04391 H 515.6795 a 2.5863017,2.5863017 45 0 1 -2.5863,-2.5863 2.3309352,2.3309352 141.68131 0 1 2.5863,-2.04391 z"
           inkscape:path-effect="#path-effect35"
           inkscape:original-d="m 513.0932,542.26355 h 20.57135 v 4.63021 H 513.0932 Z"
           transform="translate(44.003583,0.67664368)" />
      </g>
      <path
         style="fill:#fa0116;fill-opacity:1;stroke:#e8e3e6;stroke-width:0;stroke-dasharray:none"
         d="m 558.8493,585.29976 c 0,0 0.37417,-2.05796 1.77734,-2.15151 1.40316,-0.0936 11.88013,0.0936 11.88013,0.0936 0,0 2.15152,0.56126 2.05799,3.18051 -0.0936,2.61924 -0.18712,16.27671 -0.18712,16.27671 0,0 -1.12252,1.68378 -2.24504,1.4967 -1.12255,-0.18709 -1.59025,-0.28062 -2.15154,-0.65482 -0.56126,-0.37417 -3.55468,-3.64821 -3.55468,-3.64821 l -4.30302,4.11594 c 0,0 -1.87089,0.28064 -2.33863,-0.37417 -0.46773,-0.65482 -1.02899,-1.21608 -1.02899,-2.61925 0,-1.40316 0.0936,-15.71545 0.0936,-15.71545 z"
         id="path31"
         transform="translate(67.601042,-7.8052083)" />
      <rect
         style="fill:#ffda44;fill-opacity:1;stroke:#e8e3e6;stroke-width:0;stroke-dasharray:none"
         id="rect35"
         width="7.9512682"
         height="8.1383572"
         x="630.11462"
         y="579.32007" />
      <path
         style="fill:#fa0116;fill-opacity:1;stroke:#e8e3e6;stroke-width:0;stroke-dasharray:none"
         id="path35"
         sodipodi:type="arc"
         sodipodi:cx="634.23065"
         sodipodi:cy="591.05975"
         sodipodi:rx="5.1449385"
         sodipodi:ry="6.0336099"
         sodipodi:start="3.1415927"
         sodipodi:end="6.2831853"
         sodipodi:arc-type="slice"
         d="m 629.08571,591.05975 a 5.1449385,6.0336099 0 0 1 5.14494,-6.03361 5.1449385,6.0336099 0 0 1 5.14494,6.03361 h -5.14494 z" />
    </g>
  </g>
</svg>
