<svg width="391" height="354" viewBox="0 0 391 354" fill="none" xmlns="http://www.w3.org/2000/svg">
<path d="M388.959 177C388.959 273.793 302.523 352.5 195.587 352.5C88.6512 352.5 2.21436 273.793 2.21436 177C2.21436 80.2065 88.6512 1.5 195.587 1.5C302.523 1.5 388.959 80.2065 388.959 177Z" stroke="#C70000" stroke-width="3"/>
<path d="M125.289 154.455C125.289 157.523 124.735 160.174 123.627 162.409C122.519 164.644 120.999 166.367 119.068 167.58C117.136 168.792 114.929 169.398 112.448 169.398C109.967 169.398 107.761 168.792 105.829 167.58C103.897 166.367 102.377 164.644 101.269 162.409C100.161 160.174 99.6074 157.523 99.6074 154.455C99.6074 151.386 100.161 148.735 101.269 146.5C102.377 144.265 103.897 142.542 105.829 141.33C107.761 140.117 109.967 139.511 112.448 139.511C114.929 139.511 117.136 140.117 119.068 141.33C120.999 142.542 122.519 144.265 123.627 146.5C124.735 148.735 125.289 151.386 125.289 154.455ZM121.88 154.455C121.88 151.936 121.459 149.81 120.616 148.077C119.783 146.344 118.651 145.032 117.221 144.142C115.801 143.252 114.21 142.807 112.448 142.807C110.687 142.807 109.091 143.252 107.661 144.142C106.241 145.032 105.109 146.344 104.266 148.077C103.433 149.81 103.016 151.936 103.016 154.455C103.016 156.973 103.433 159.099 104.266 160.832C105.109 162.565 106.241 163.877 107.661 164.767C109.091 165.657 110.687 166.102 112.448 166.102C114.21 166.102 115.801 165.657 117.221 164.767C118.651 163.877 119.783 162.565 120.616 160.832C121.459 159.099 121.88 156.973 121.88 154.455ZM131.212 169V139.909H148.769V143.034H134.735V152.125H142.122C144.205 152.125 145.962 152.466 147.391 153.148C148.831 153.83 149.92 154.791 150.659 156.031C151.407 157.272 151.781 158.735 151.781 160.42C151.781 162.106 151.407 163.593 150.659 164.881C149.92 166.169 148.831 167.177 147.391 167.906C145.962 168.635 144.205 169 142.122 169H131.212ZM134.735 165.932H142.122C143.447 165.932 144.57 165.667 145.488 165.136C146.416 164.597 147.117 163.905 147.59 163.062C148.073 162.21 148.315 161.311 148.315 160.364C148.315 158.972 147.78 157.774 146.71 156.77C145.64 155.757 144.11 155.25 142.122 155.25H134.735V165.932ZM180.989 149H177.466C177.258 147.987 176.893 147.097 176.372 146.33C175.861 145.562 175.236 144.919 174.497 144.398C173.768 143.867 172.958 143.47 172.068 143.205C171.178 142.939 170.25 142.807 169.284 142.807C167.523 142.807 165.927 143.252 164.497 144.142C163.077 145.032 161.945 146.344 161.102 148.077C160.269 149.81 159.852 151.936 159.852 154.455C159.852 156.973 160.269 159.099 161.102 160.832C161.945 162.565 163.077 163.877 164.497 164.767C165.927 165.657 167.523 166.102 169.284 166.102C170.25 166.102 171.178 165.97 172.068 165.705C172.958 165.439 173.768 165.046 174.497 164.526C175.236 163.995 175.861 163.347 176.372 162.58C176.893 161.803 177.258 160.913 177.466 159.909H180.989C180.724 161.396 180.241 162.726 179.54 163.901C178.839 165.075 177.968 166.074 176.926 166.898C175.885 167.712 174.715 168.332 173.418 168.759C172.13 169.185 170.752 169.398 169.284 169.398C166.803 169.398 164.597 168.792 162.665 167.58C160.733 166.367 159.213 164.644 158.105 162.409C156.997 160.174 156.443 157.523 156.443 154.455C156.443 151.386 156.997 148.735 158.105 146.5C159.213 144.265 160.733 142.542 162.665 141.33C164.597 140.117 166.803 139.511 169.284 139.511C170.752 139.511 172.13 139.724 173.418 140.151C174.715 140.577 175.885 141.202 176.926 142.026C177.968 142.84 178.839 143.834 179.54 145.009C180.241 146.173 180.724 147.504 180.989 149ZM188.215 169.398V166.102H190.034C190.734 166.102 191.321 165.965 191.795 165.69C192.278 165.416 192.676 165.061 192.988 164.625C193.31 164.189 193.575 163.735 193.784 163.261L194.238 162.182L184.181 139.909H187.988L195.999 157.977L203.329 139.909H207.079L197.022 164.284C196.624 165.193 196.17 166.036 195.659 166.812C195.157 167.589 194.47 168.214 193.599 168.688C192.737 169.161 191.568 169.398 190.09 169.398H188.215ZM209.142 176.045V165.875H211.017C211.661 165.288 212.267 164.459 212.835 163.389C213.413 162.31 213.901 160.87 214.298 159.071C214.706 157.262 214.976 154.966 215.108 152.182L215.733 139.909H233.006V165.875H236.358V175.989H233.006V169H212.494V176.045H209.142ZM215.222 165.875H229.654V143.034H218.915L218.46 152.182C218.347 154.303 218.148 156.225 217.864 157.949C217.58 159.663 217.215 161.183 216.77 162.509C216.325 163.825 215.809 164.947 215.222 165.875ZM241.681 139.909H245.147V162.807H245.431L261.34 139.909H264.749V169H261.227V146.159H260.943L245.09 169H241.681V139.909ZM271.798 139.909H276.003L285.889 164.057H286.23L296.117 139.909H300.321V169H297.026V146.898H296.742L287.651 169H284.469L275.378 146.898H275.094V169H271.798V139.909ZM135.611 187.909V217H132.088V191.034H117.429V217H113.906V187.909H135.611ZM142.716 217V187.909H152.546C154.828 187.909 156.694 188.321 158.143 189.145C159.601 189.959 160.68 191.062 161.381 192.455C162.082 193.847 162.432 195.4 162.432 197.114C162.432 198.828 162.082 200.385 161.381 201.787C160.69 203.188 159.62 204.306 158.171 205.139C156.722 205.963 154.866 206.375 152.603 206.375H145.557V203.25H152.489C154.052 203.25 155.306 202.98 156.253 202.44C157.2 201.901 157.887 201.171 158.313 200.253C158.749 199.325 158.966 198.278 158.966 197.114C158.966 195.949 158.749 194.907 158.313 193.989C157.887 193.07 157.196 192.35 156.239 191.83C155.283 191.299 154.014 191.034 152.432 191.034H146.239V217H142.716ZM192.652 202.455C192.652 205.523 192.099 208.174 190.991 210.409C189.883 212.644 188.363 214.367 186.431 215.58C184.499 216.792 182.293 217.398 179.812 217.398C177.331 217.398 175.124 216.792 173.192 215.58C171.26 214.367 169.741 212.644 168.633 210.409C167.525 208.174 166.971 205.523 166.971 202.455C166.971 199.386 167.525 196.735 168.633 194.5C169.741 192.265 171.26 190.542 173.192 189.33C175.124 188.117 177.331 187.511 179.812 187.511C182.293 187.511 184.499 188.117 186.431 189.33C188.363 190.542 189.883 192.265 190.991 194.5C192.099 196.735 192.652 199.386 192.652 202.455ZM189.243 202.455C189.243 199.936 188.822 197.81 187.979 196.077C187.146 194.344 186.014 193.032 184.584 192.142C183.164 191.252 181.573 190.807 179.812 190.807C178.05 190.807 176.455 191.252 175.025 192.142C173.604 193.032 172.473 194.344 171.63 196.077C170.796 197.81 170.38 199.936 170.38 202.455C170.38 204.973 170.796 207.099 171.63 208.832C172.473 210.565 173.604 211.877 175.025 212.767C176.455 213.657 178.05 214.102 179.812 214.102C181.573 214.102 183.164 213.657 184.584 212.767C186.014 211.877 187.146 210.565 187.979 208.832C188.822 207.099 189.243 204.973 189.243 202.455ZM198.576 217V187.909H216.133V191.034H202.099V200.864H215.224V203.989H202.099V213.875H216.36V217H198.576ZM239.584 217L229.584 203.648H226.005V217H222.482V187.909H226.005V200.523H227.539L239.187 187.909H243.391L231.63 200.693L243.789 217H239.584ZM246.75 191.034V187.909H268.569V191.034H259.421V217H255.898V191.034H246.75ZM277.926 208.818V208.648C277.945 206.839 278.134 205.4 278.494 204.33C278.854 203.259 279.365 202.393 280.028 201.73C280.691 201.067 281.487 200.456 282.415 199.898C282.973 199.557 283.475 199.154 283.92 198.69C284.365 198.217 284.716 197.672 284.971 197.057C285.237 196.441 285.369 195.759 285.369 195.011C285.369 194.083 285.151 193.278 284.716 192.597C284.28 191.915 283.698 191.389 282.969 191.02C282.239 190.651 281.43 190.466 280.54 190.466C279.763 190.466 279.015 190.627 278.295 190.949C277.576 191.271 276.974 191.777 276.491 192.469C276.008 193.16 275.729 194.064 275.653 195.182H272.074C272.149 193.572 272.566 192.194 273.324 191.048C274.091 189.902 275.099 189.027 276.349 188.42C277.609 187.814 279.005 187.511 280.54 187.511C282.206 187.511 283.655 187.843 284.886 188.506C286.127 189.169 287.083 190.078 287.755 191.233C288.437 192.388 288.778 193.705 288.778 195.182C288.778 196.223 288.617 197.166 288.295 198.009C287.983 198.851 287.528 199.604 286.932 200.267C286.344 200.93 285.634 201.517 284.801 202.028C283.968 202.549 283.3 203.098 282.798 203.676C282.296 204.244 281.932 204.921 281.704 205.707C281.477 206.493 281.354 207.473 281.335 208.648V208.818H277.926ZM279.744 217.227C279.043 217.227 278.442 216.976 277.94 216.474C277.438 215.973 277.187 215.371 277.187 214.67C277.187 213.97 277.438 213.368 277.94 212.866C278.442 212.365 279.043 212.114 279.744 212.114C280.445 212.114 281.046 212.365 281.548 212.866C282.05 213.368 282.301 213.97 282.301 214.67C282.301 215.134 282.183 215.561 281.946 215.949C281.719 216.337 281.411 216.65 281.022 216.886C280.644 217.114 280.218 217.227 279.744 217.227Z" fill="white"/>
</svg>
